<svg width="20" height="20" viewBox="0 0 20 20" fill="none" xmlns="http://www.w3.org/2000/svg">
<path d="M1.26275 0C0.943342 0 0.60933 0.10743 0.36556 0.351005C-0.121853 0.839404 -0.121853 1.6588 0.36556 2.1472L8.20574 9.99282L0.36556 17.8384C-0.121853 18.3268 -0.121853 19.1462 0.36556 19.6346C0.853099 20.1218 1.6724 20.1218 2.15994 19.6346L10 11.789L17.8401 19.6346C18.3276 20.1218 19.1469 20.1218 19.6344 19.6346C20.1219 19.1462 20.1219 18.3268 19.6344 17.8384L11.7943 9.99282L19.6344 2.1472C20.1219 1.6588 20.1219 0.839404 19.6344 0.351005C19.3907 0.10743 19.0565 0 18.7372 0C18.4178 0 18.084 0.10743 17.8401 0.351005L10 8.19661L2.15994 0.351005C1.91617 0.10743 1.58216 0 1.26275 0Z" fill="currentColor"/>
</svg>
